0
SECTION
2
HEADER
9
$INSUNITS
70
2
0
ENDSEC
0
SECTION
2
ENTITIES
0
LINE
8
A-WALL
10
-0.2500
20
0.2500
11
40.2500
21
0.2500
0
LINE
8
A-WALL
10
-0.2500
20
-0.2500
11
40.2500
21
-0.2500
0
LINE
8
A-WALL
10
39.7500
20
-0.2500
11
39.7500
21
30.2500
0
LINE
8
A-WALL
10
40.2500
20
-0.2500
11
40.2500
21
30.2500
0
LINE
8
A-WALL
10
40.2500
20
29.7500
11
-0.2500
21
29.7500
0
LINE
8
A-WALL
10
40.2500
20
30.2500
11
-0.2500
21
30.2500
0
LINE
8
A-WALL
10
0.2500
20
30.2500
11
0.2500
21
-0.2500
0
LINE
8
A-WALL
10
-0.2500
20
30.2500
11
-0.2500
21
-0.2500
0
LINE
8
A-WALL
10
23.7500
20
-0.2500
11
23.7500
21
30.2500
0
LINE
8
A-WALL
10
24.2500
20
-0.2500
11
24.2500
21
30.2500
0
LINE
8
A-WALL
10
-0.2500
20
15.2500
11
24.2500
21
15.2500
0
LINE
8
A-WALL
10
-0.2500
20
14.7500
11
24.2500
21
14.7500
0
LINE
8
A-WALL
10
23.7500
20
18.2500
11
40.2500
21
18.2500
0
LINE
8
A-WALL
10
23.7500
20
17.7500
11
40.2500
21
17.7500
0
LINE
8
A-WALL
10
31.7500
20
17.7500
11
31.7500
21
30.2500
0
LINE
8
A-WALL
10
32.2500
20
17.7500
11
32.2500
21
30.2500
0
ENDSEC
0
EOF
